<svg xmlns="http://www.w3.org/2000/svg" width="512" height="512" viewBox="0 0 512 512" version="1.1"><path d="M 93.383 50.402 C 88.598 52.630, 84.850 56.402, 82.072 61.785 C 80.608 64.620, 32 382.455, 32 389.187 C 32 397.471, 36.059 404.391, 43.688 409.113 C 46.115 410.615, 57.562 412.739, 91.637 418.010 C 116.256 421.818, 136.578 424.755, 136.797 424.536 C 137.016 424.317, 129.189 362.700, 119.403 287.609 L 101.610 151.079 103.320 145.653 C 105.348 139.219, 111.690 132.749, 117.652 131.029 C 119.769 130.419, 146.813 126.637, 177.751 122.625 C 208.690 118.613, 234.171 115.144, 234.377 114.915 C 235.270 113.922, 241.896 69.507, 241.234 68.944 C 240.220 68.081, 106.337 47.917, 102 47.974 C 100.075 47.999, 96.197 49.092, 93.383 50.402 M 257.575 72.137 C 256.740 74.668, 250.977 112.310, 251.364 112.698 C 252.223 113.557, 295.312 107.113, 295.985 106.025 C 296.588 105.048, 300.097 83.635, 300.404 79.060 C 300.475 77.990, 298.185 77.299, 291.500 76.375 C 274.545 74.030, 262.499 72.132, 260.262 71.453 C 258.777 71.002, 257.873 71.232, 257.575 72.137 M 316.701 80.691 C 315.954 81.925, 312.688 104.022, 313.180 104.513 C 313.417 104.750, 332.414 102.482, 355.395 99.472 C 378.377 96.462, 397.702 93.970, 398.340 93.932 C 403.172 93.650, 390.208 91.199, 359 86.494 C 338.925 83.468, 321.305 80.742, 319.845 80.437 C 318.385 80.132, 316.970 80.247, 316.701 80.691 M 272.716 170.474 C 181.666 182.445, 183.968 182.008, 182.569 187.582 C 181.737 190.894, 184.453 195.825, 187.534 196.598 C 191.205 197.519, 361.973 175.165, 364.734 173.401 C 367.311 171.756, 368.491 168.092, 367.594 164.518 C 366.986 162.095, 362.395 158.903, 359.800 159.098 C 359.085 159.152, 319.897 164.271, 272.716 170.474 M 279.108 222.412 C 161.323 237.895, 155.632 238.736, 153.858 240.927 C 150.509 245.062, 151.937 251.265, 156.650 253.057 C 158.528 253.771, 190.749 249.903, 281.992 238.009 C 349.540 229.204, 405.321 222, 405.949 222 C 408.073 222, 412 217.112, 412 214.469 C 412 211.378, 407.029 205.954, 404.327 206.096 C 403.322 206.149, 346.974 213.491, 279.108 222.412 M 286.500 274.156 C 188.755 286.948, 164.003 290.477, 162 291.910 C 157.511 295.120, 158.401 303.061, 163.466 304.987 C 165.099 305.608, 202.888 301.049, 288.155 289.945 C 355.445 281.182, 411.037 274.009, 411.694 274.006 C 412.351 274.003, 414.114 272.946, 415.611 271.658 C 417.556 269.985, 418.333 268.370, 418.333 266 C 418.333 262.155, 414.261 257.940, 410.694 258.096 C 409.487 258.148, 353.600 265.375, 286.500 274.156 M 354.500 318.069 C 322.050 322.372, 267.474 329.536, 233.221 333.989 C 198.967 338.442, 170.230 342.358, 169.360 342.692 C 168.489 343.026, 167.222 344.620, 166.544 346.234 C 163.995 352.296, 167.454 357.561, 173.834 357.328 C 178.463 357.159, 416.793 326.131, 419.500 325.344 C 423.200 324.270, 425 321.839, 425 317.918 C 425 313.300, 421.380 309.935, 416.615 310.123 C 414.902 310.190, 386.950 313.766, 354.500 318.069 M 214.099 389.114 C 190.972 392.197, 176.874 394.508, 175.436 395.450 C 169.449 399.373, 172.269 408.242, 179.679 408.799 C 181.868 408.964, 199.242 407.051, 218.289 404.549 C 237.336 402.047, 253.648 400, 254.537 400 C 256.886 400, 262 394.518, 262 392 C 262 388.759, 256.727 383.974, 253.327 384.130 C 251.772 384.201, 234.120 386.444, 214.099 389.114" stroke="none" fill="#f3d369" fill-rule="evenodd"/><path d="M 288.344 21.057 C 279.045 22.862, 270.844 29.600, 267.603 38.096 C 266.050 42.168, 260.859 71.073, 261.543 71.840 C 262.054 72.412, 276.996 74.337, 277.445 73.888 C 277.677 73.657, 278.976 66.778, 280.333 58.603 C 282.614 44.856, 283.033 43.506, 285.896 40.642 C 291.313 35.226, 300.268 37.124, 303.857 44.450 C 305.030 46.843, 304.926 49.077, 303.095 60.860 C 301.930 68.362, 300.765 76.300, 300.507 78.500 C 299.339 88.452, 296.614 105.007, 295.973 106.044 C 295.309 107.117, 252.208 113.542, 251.360 112.694 C 251.018 112.351, 254.188 92.607, 260.063 58.500 C 262.467 44.544, 262.516 45.362, 259.077 41.923 C 255.344 38.190, 251.711 38.135, 248.090 41.756 C 245.660 44.186, 245.131 45.935, 243.624 56.506 C 240.671 77.217, 234.774 114.482, 234.380 114.915 C 234.173 115.144, 208.690 118.613, 177.751 122.625 C 146.813 126.637, 119.769 130.419, 117.652 131.029 C 111.691 132.749, 105.348 139.220, 103.321 145.651 L 101.611 151.075 119.362 288.287 C 129.125 363.754, 138.622 437.251, 140.466 451.613 C 144.020 479.289, 145.008 482.834, 150.658 488.197 C 154.695 492.028, 160.068 494, 166.469 494 C 169.512 494, 199.789 490.385, 233.751 485.967 C 267.713 481.549, 331.950 473.224, 376.500 467.467 C 421.050 461.710, 459.394 456.497, 461.708 455.882 C 469.326 453.858, 476.608 445.825, 478.412 437.456 C 479.121 434.170, 437.735 113.002, 435.845 107.119 C 434.370 102.528, 428.365 96.081, 423.500 93.866 C 418.945 91.791, 410.132 91.452, 401.886 93.033 C 392.948 94.748, 313.646 104.979, 313.149 104.482 C 312.895 104.228, 313.669 98.278, 314.870 91.260 C 322.116 48.908, 322.119 48.888, 320.991 43.455 C 317.840 28.280, 303.129 18.187, 288.344 21.057 M 288.345 46.931 C 286.425 48.102, 284.966 49.959, 284.616 51.677 C 282.910 60.046, 280.849 74.183, 281.273 74.607 C 282.090 75.423, 295.018 77.207, 296.367 76.689 C 297.129 76.397, 298.359 71.438, 299.474 64.171 C 301.219 52.789, 301.227 51.995, 299.607 49.524 C 298.130 47.269, 294.391 44.992, 292.185 45.004 C 291.808 45.006, 290.080 45.873, 288.345 46.931 M 272.716 170.474 C 181.666 182.445, 183.968 182.008, 182.569 187.582 C 181.737 190.894, 184.453 195.825, 187.534 196.598 C 191.205 197.519, 361.973 175.165, 364.734 173.401 C 367.311 171.756, 368.491 168.092, 367.594 164.518 C 366.986 162.095, 362.395 158.903, 359.800 159.098 C 359.085 159.152, 319.897 164.271, 272.716 170.474 M 279.108 222.412 C 161.323 237.895, 155.632 238.736, 153.858 240.927 C 150.509 245.062, 151.937 251.265, 156.650 253.057 C 158.528 253.771, 190.749 249.903, 281.992 238.009 C 349.540 229.204, 405.321 222, 405.949 222 C 408.073 222, 412 217.112, 412 214.469 C 412 211.378, 407.029 205.954, 404.327 206.096 C 403.322 206.149, 346.974 213.491, 279.108 222.412 M 286.500 274.156 C 188.755 286.948, 164.003 290.477, 162 291.910 C 157.511 295.120, 158.401 303.061, 163.466 304.987 C 165.099 305.608, 202.888 301.049, 288.155 289.945 C 355.445 281.182, 411.037 274.009, 411.694 274.006 C 412.351 274.003, 414.114 272.946, 415.611 271.658 C 417.556 269.985, 418.333 268.370, 418.333 266 C 418.333 262.155, 414.261 257.940, 410.694 258.096 C 409.487 258.148, 353.600 265.375, 286.500 274.156 M 354.500 318.069 C 322.050 322.372, 267.474 329.536, 233.221 333.989 C 198.967 338.442, 170.230 342.358, 169.360 342.692 C 168.489 343.026, 167.222 344.620, 166.544 346.234 C 163.995 352.296, 167.454 357.561, 173.834 357.328 C 178.463 357.159, 416.793 326.131, 419.500 325.344 C 423.200 324.270, 425 321.839, 425 317.918 C 425 313.300, 421.380 309.935, 416.615 310.123 C 414.902 310.190, 386.950 313.766, 354.500 318.069 M 214.099 389.114 C 190.972 392.197, 176.874 394.508, 175.436 395.450 C 169.449 399.373, 172.269 408.242, 179.679 408.799 C 181.868 408.964, 199.242 407.051, 218.289 404.549 C 237.336 402.047, 253.648 400, 254.537 400 C 256.886 400, 262 394.518, 262 392 C 262 388.759, 256.727 383.974, 253.327 384.130 C 251.772 384.201, 234.120 386.444, 214.099 389.114" stroke="none" fill="#2cb4f3" fill-rule="evenodd"/></svg>